<?xml version="1.0" standalone="no"?>
<!DOCTYPE svg PUBLIC "-//W3C//DTD SVG 20010904//EN"
 "http://www.w3.org/TR/2001/REC-SVG-20010904/DTD/svg10.dtd">
<svg version="1.0" xmlns="http://www.w3.org/2000/svg"
 width="512.000000pt" height="512.000000pt" viewBox="0 0 512.000000 512.000000"
 preserveAspectRatio="xMidYMid meet">
<metadata>
Created by potrace 1.14, written by Peter Selinger 2001-2017
</metadata>
<g transform="translate(0.000000,512.000000) scale(0.100000,-0.100000)"
fill="#000000" stroke="none">
<path d="M252 3968 c3 -53 3 -53 38 -55 116 -8 198 -41 252 -101 73 -81 71
-75 598 -1779 l394 -1273 58 0 c32 0 58 2 58 5 0 9 841 2610 846 2614 2 2 4 2
4 0 1 -2 218 -591 483 -1309 l482 -1305 55 0 55 0 362 1240 c199 682 385 1310
413 1395 64 189 135 343 183 396 46 52 121 92 200 108 l62 13 3 51 3 52 -435
0 -436 0 0 -49 c0 -56 -1 -55 91 -66 69 -8 153 -55 186 -104 65 -96 67 -216 8
-451 -27 -111 -508 -1803 -531 -1869 -2 -8 -7 -12 -9 -9 -3 3 -214 576 -469
1274 l-464 1269 -67 0 -67 0 -409 -1260 c-467 -1437 -418 -1289 -424 -1283 -7
7 -580 1883 -625 2045 -22 80 -40 168 -40 195 0 125 69 176 260 196 l75 7 3
53 3 52 -601 0 -601 0 3 -52z"/>
</g>
</svg>
